:FULLY-SPECIFIED
:DEGREES
400
root 4.84716 16.3779 -2.25229 -85.6484 -87.4909 101.598
lowerback -6.03114 -1.52332 -0.824346
upperback -4.92269 -2.1357 0.214802
thorax -1.65332 -1.10668 0.588451
lowerneck -15.8285 -1.10246 0.949961
upperneck 20.4855 -2.14031 0.725306
head 9.04087 -0.923579 -0.186548
rclavicle -9.54166e-015 -2.0276e-014
rhumerus -40.219 -6.85659 -78.0364
rradius 30.4546
rwrist 19.6429
rhand -24.4705 -5.27566
rfingers 7.12502
rthumb 2.02301 -35.2458
lclavicle -9.54166e-015 -2.0276e-014
lhumerus -34.3439 -11.8798 86.9166
lradius 38.6549
lwrist -4.36861
lhand -38.1903 -1.58713
lfingers 7.12502
lthumb -11.2228 28.0927
rfemur -47.2661 3.68293 16.8779
rtibia 50.9004
rfoot -12.3594 -10.8979
rtoes -14.1229
lfemur -22.2593 -17.3006 -28.6354
ltibia 23.2599
lfoot -14.3414 25.5508
ltoes -3.13253
401
root 4.86065 16.3776 -2.25206 -84.0075 -87.5213 100.114
lowerback -6.07315 -1.59031 -0.849711
upperback -4.95392 -2.22498 0.270725
thorax -1.65791 -1.15058 0.655235
lowerneck -15.8773 -1.10692 0.888128
upperneck 20.3586 -2.14066 0.79859
head 9.00769 -0.919524 -0.15077
rclavicle 3.49861e-014 1.39149e-014
rhumerus -40.5783 -6.98931 -77.7499
rradius 30.3431
rwrist 19.6197
rhand -24.5959 -5.26542
rfingers 7.12502
rthumb 1.90186 -35.2367
lclavicle 3.49861e-014 1.39149e-014
lhumerus -34.0531 -12.3417 86.9789
lradius 39.0688
lwrist -4.10447
lhand -38.0999 -1.58821
lfingers 7.12502
lthumb -11.1356 28.0963
rfemur -47.2131 4.15321 16.7415
rtibia 47.6154
rfoot -11.886 -10.9487
rtoes -15.0271
lfemur -21.5835 -17.8257 -28.6101
ltibia 22.6462
lfoot -14.4508 25.9918
ltoes -3.10553
402
root 4.87394 16.3905 -2.252 -82.2757 -87.5705 98.6141
lowerback -6.18913 -1.65048 -0.852833
upperback -5.00251 -2.307 0.32705
thorax -1.64021 -1.19217 0.708172
lowerneck -15.9543 -1.13327 0.82406
upperneck 20.2653 -2.16999 0.861647
head 8.99115 -0.930087 -0.122135
rclavicle 1.03368e-014 -2.38542e-015
rhumerus -40.9037 -7.14203 -77.4848
rradius 30.2891
rwrist 19.5591
rhand -24.5032 -5.3587
rfingers 7.12502
rthumb 1.99134 -35.3292
lclavicle 1.03368e-014 -2.38542e-015
lhumerus -33.7515 -12.8514 87.0326
lradius 39.4269
lwrist -4.04271
lhand -38.0053 -1.5039
lfingers 7.12502
lthumb -11.0444 28.1855
rfemur -47.1574 4.74469 16.4924
rtibia 44.1597
rfoot -11.4491 -10.948
rtoes -15.0285
lfemur -20.9384 -18.2263 -28.5572
ltibia 21.9218
lfoot -14.5326 26.3489
ltoes -3.12254
403
root 4.88687 16.4027 -2.25295 -81.2732 -87.6074 97.8281
lowerback -6.29746 -1.70347 -0.863892
upperback -5.04594 -2.37899 0.37572
thorax -1.62149 -1.22856 0.758115
lowerneck -16.0507 -1.15725 0.785855
upperneck 20.2076 -2.19741 0.894544
head 8.98979 -0.940908 -0.108221
rclavicle 1.59028e-014 -7.15625e-015
rhumerus -41.1774 -7.39882 -77.1671
rradius 30.0848
rwrist 19.7858
rhand -24.4796 -5.25601
rfingers 7.12502
rthumb 2.01419 -35.2262
lclavicle 1.59028e-014 -7.15625e-015
lhumerus -33.531 -13.3737 87.1019
lradius 39.9026
lwrist -3.82422
lhand -37.9455 -1.62336
lfingers 7.12502
lthumb -10.9867 28.0691
rfemur -46.9749 5.47985 16.1544
rtibia 40.5466
rfoot -10.9618 -11.1056
rtoes -14.4477
lfemur -20.2775 -18.5209 -28.5363
ltibia 21.1695
lfoot -14.4253 26.6531
ltoes -3.33046
404
root 4.9013 16.4141 -2.25413 -80.9855 -87.6742 97.7548
lowerback -6.38051 -1.73228 -0.825732
upperback -5.09307 -2.42129 0.417503
thorax -1.62328 -1.25135 0.775811
lowerneck -16.1276 -1.17045 0.775662
upperneck 20.129 -2.21501 0.92254
head 8.97732 -0.945693 -0.0991576
rclavicle -1.03368e-014 5.96354e-015
rhumerus -41.4463 -7.52517 -76.9537
rradius 30.0281
rwrist 19.703
rhand -24.4309 -5.48049
rfingers 7.12502
rthumb 2.06119 -35.4503
lclavicle -1.03368e-014 5.96354e-015
lhumerus -33.3022 -13.8052 87.0947
lradius 40.3188
lwrist -3.91105
lhand -37.982 -1.54525
lfingers 7.12502
lthumb -11.0219 28.1454
rfemur -46.7167 6.39286 15.7271
rtibia 36.885
rfoot -9.96657 -11.4283
rtoes -14.6153
lfemur -19.5285 -18.8003 -28.4821
ltibia 20.2539
lfoot -14.3898 26.9708
ltoes -3.55299
405
root 4.91314 16.4282 -2.25384 -80.5501 -87.6725 97.455
lowerback -6.42676 -1.75414 -0.810061
upperback -5.1196 -2.4526 0.415938
thorax -1.62529 -1.26821 0.762881
lowerneck -16.136 -1.17196 0.782977
upperneck 20.0311 -2.22042 0.950783
head 8.94553 -0.944272 -0.0908474
rclavicle 1.98785e-014 -5.96354e-015
rhumerus -41.7512 -7.72785 -76.728
rradius 29.9379
rwrist 19.8785
rhand -24.4644 -5.5358
rfingers 7.12502
rthumb 2.02885 -35.5059
lclavicle 1.98785e-014 -5.96354e-015
lhumerus -33.1134 -14.4478 87.1868
lradius 40.7191
lwrist -3.60668
lhand -38.0267 -1.50371
lfingers 7.12502
lthumb -11.065 28.1846
rfemur -46.3281 7.50547 15.0385
rtibia 33.2763
rfoot -9.06364 -12.1035
rtoes -14.6878
lfemur -18.6361 -19.0838 -28.5414
ltibia 19.3045
lfoot -14.2655 27.2174
ltoes -3.83753
406
root 4.92489 16.4382 -2.25494 -80.4613 -87.6043 97.5025
lowerback -6.49747 -1.7814 -0.877356
upperback -5.11913 -2.48595 0.416296
thorax -1.5824 -1.28371 0.796566
lowerneck -16.2415 -1.18101 0.744859
upperneck 19.9843 -2.22423 0.970327
head 8.94937 -0.945287 -0.078724
rclavicle -5.56597e-015 2.38542e-015
rhumerus -41.976 -7.95645 -76.463
rradius 29.8593
rwrist 20.0484
rhand -24.4199 -5.50405
rfingers 7.12502
rthumb 2.07187 -35.4737
lclavicle -5.56597e-015 2.38542e-015
lhumerus -32.8784 -14.9174 87.2458
lradius 41.1105
lwrist -3.34916
lhand -37.9989 -1.58563
lfingers 7.12502
lthumb -11.0382 28.1041
rfemur -45.9705 8.74298 14.1897
rtibia 29.8034
rfoot -8.33885 -13.3259
rtoes -14.5649
lfemur -17.7121 -19.2105 -28.691
ltibia 18.2646
lfoot -14.104 27.3602
ltoes -4.21676
407
root 4.93948 16.4427 -2.25957 -79.7299 -87.5553 96.9754
lowerback -6.6028 -1.82305 -0.97722
upperback -5.15189 -2.53822 0.451154
thorax -1.55151 -1.30796 0.882333
lowerneck -16.3016 -1.18593 0.71567
upperneck 19.9077 -2.21109 0.937401
head 8.93377 -0.943833 -0.0833287
rclavicle -5.56597e-014 3.97569e-016
rhumerus -42.1841 -7.9589 -76.2889
rradius 29.816
rwrist 19.9896
rhand -24.3926 -5.46886
rfingers 7.12502
rthumb 2.09821 -35.4383
lclavicle -5.56597e-014 3.97569e-016
lhumerus -32.6986 -15.3646 87.3411
lradius 41.5138
lwrist -3.18548
lhand -37.933 -1.4554
lfingers 7.12502
lthumb -10.9746 28.2377
rfemur -45.6966 10.0845 13.1977
rtibia 26.5414
rfoot -7.71933 -14.9166
rtoes -14.0291
lfemur -16.8802 -19.3267 -28.7844
ltibia 17.203
lfoot -13.8032 27.4282
ltoes -4.60586
408
root 4.95152 16.4505 -2.26168 -80.4398 -87.4277 97.7457
lowerback -6.60725 -1.85364 -1.11745
upperback -5.1349 -2.5716 0.445344
thorax -1.52528 -1.32102 0.95229
lowerneck -16.3544 -1.18499 0.63279
upperneck 19.8503 -2.19177 0.969276
head 8.92491 -0.936675 -0.0563273
rclavicle 3.33958e-014 -5.56597e-015
rhumerus -42.3222 -7.945 -76.16
rradius 29.6873
rwrist 19.9893
rhand -24.4194 -5.45891
rfingers 7.12502
rthumb 2.07233 -35.4286
lclavicle 3.33958e-014 -5.56597e-015
lhumerus -32.5373 -15.6963 87.402
lradius 41.9248
lwrist -2.89926
lhand -37.901 -1.5084
lfingers 7.12502
lthumb -10.9438 28.1864
rfemur -45.3077 11.399 12.1463
rtibia 23.5901
rfoot -7.33375 -16.7325
rtoes -14.0596
lfemur -15.8535 -19.431 -29.0286
ltibia 16.1334
lfoot -13.6275 27.5562
ltoes -4.85086
409
root 4.96316 16.4537 -2.26358 -81.3297 -87.4243 98.6982
lowerback -6.66792 -1.85347 -1.0596
upperback -5.07474 -2.57116 0.428431
thorax -1.43247 -1.32251 0.898862
lowerneck -16.4126 -1.18942 0.57433
upperneck 19.7218 -2.19062 1.03581
head 8.89291 -0.932176 -0.0234649
rclavicle 3.10104e-014 -7.95139e-016
rhumerus -42.4148 -8.00904 -76.0711
rradius 29.6657
rwrist 20.0636
rhand -24.3035 -5.56141
rfingers 7.12502
rthumb 2.18428 -35.53
lclavicle 3.10104e-014 -7.95139e-016
lhumerus -32.3295 -16.0631 87.4011
lradius 42.2657
lwrist -2.85698
lhand -37.9881 -1.50323
lfingers 7.12502
lthumb -11.0278 28.1871
rfemur -44.9352 12.799 11.1569
rtibia 20.9226
rfoot -7.27358 -18.7812
rtoes -13.138
lfemur -14.9187 -19.4294 -29.1428
ltibia 15.2414
lfoot -13.5162 27.531
ltoes -5.24273
410
root 4.97345 16.4544 -2.2681 -82.6313 -87.2644 99.9634
lowerback -6.64304 -1.86514 -1.1814
upperback -5.00328 -2.57773 0.365939
thorax -1.36988 -1.32286 0.901488
lowerneck -16.5006 -1.17221 0.604337
upperneck 19.7045 -2.1645 0.998934
head 8.90212 -0.920437 -0.0381603
rclavicle 7.95139e-015 6.75868e-015
rhumerus -42.4553 -7.98897 -76.0873
rradius 29.5335
rwrist 20.0161
rhand -24.3274 -5.59024
rfingers 7.12502
rthumb 2.16115 -35.559
lclavicle 7.95139e-015 6.75868e-015
lhumerus -32.1759 -16.4314 87.4155
lradius 42.6996
lwrist -2.43724
lhand -37.9153 -1.53524
lfingers 7.12502
lthumb -10.9576 28.1588
rfemur -44.5676 14.1818 10.037
rtibia 18.6853
rfoot -7.30316 -20.8777
rtoes -12.3771
lfemur -13.8526 -19.3105 -29.474
ltibia 14.3313
lfoot -13.2193 27.4578
ltoes -5.98079
